<svg width="93" height="107" viewBox="0 0 93 107" fill="none" xmlns="http://www.w3.org/2000/svg">
<path d="M36.0853 70.4455C33.6878 70.4455 31.6457 69.7931 29.959 68.4883C28.2723 67.1729 26.9834 65.2687 26.0923 62.7758C25.2012 60.2722 24.7557 57.2488 24.7557 53.7057C24.7557 50.1837 25.2012 47.1763 26.0923 44.6833C26.994 42.1798 28.2882 40.2703 29.9749 38.9548C31.6723 37.6288 33.7091 36.9658 36.0853 36.9658C38.4616 36.9658 40.4931 37.6288 42.1798 38.9548C43.8771 40.2703 45.1713 42.1798 46.0624 44.6833C46.9641 47.1763 47.415 50.1837 47.415 53.7057C47.415 57.2488 46.9694 60.2722 46.0783 62.7758C45.1872 65.2687 43.8983 67.1729 42.2116 68.4883C40.5249 69.7931 38.4828 70.4455 36.0853 70.4455ZM36.0853 66.9448C38.4616 66.9448 40.3074 65.7991 41.6228 63.5077C42.9383 61.2163 43.596 57.949 43.596 53.7057C43.596 50.8839 43.2936 48.4811 42.689 46.4973C42.0949 44.5136 41.2356 43.0019 40.1112 41.9623C38.9973 40.9227 37.6553 40.4029 36.0853 40.4029C33.7303 40.4029 31.8897 41.5645 30.5637 43.8877C29.2377 46.2003 28.5746 49.473 28.5746 53.7057C28.5746 56.5275 28.8717 58.9249 29.4657 60.8981C30.0598 62.8712 30.9138 64.3723 32.0276 65.4013C33.1521 66.4303 34.5047 66.9448 36.0853 66.9448ZM64.9186 37.4113V70H60.9724V41.5486H60.7814L52.8252 46.8315V42.8216L60.9724 37.4113H64.9186Z" fill="#EBEBEB"/>
<path d="M2.10766 27.9139L46.2406 2.43371L90.3735 27.9139V78.8742L46.2406 104.354L2.10766 78.8742V27.9139Z" stroke="#DB0E4B" stroke-width="4.21532"/>
</svg>
