<svg width="93" height="107" viewBox="0 0 93 107" fill="none" xmlns="http://www.w3.org/2000/svg">
<path d="M32.1251 70.4455C29.7276 70.4455 27.6855 69.7931 25.9988 68.4883C24.3121 67.1729 23.0232 65.2687 22.1321 62.7758C21.241 60.2722 20.7954 57.2488 20.7954 53.7057C20.7954 50.1837 21.241 47.1763 22.1321 44.6833C23.0338 42.1798 24.328 40.2703 26.0147 38.9548C27.7121 37.6288 29.7488 36.9658 32.1251 36.9658C34.5014 36.9658 36.5328 37.6288 38.2196 38.9548C39.9169 40.2703 41.2111 42.1798 42.1022 44.6833C43.0039 47.1763 43.4548 50.1837 43.4548 53.7057C43.4548 57.2488 43.0092 60.2722 42.1181 62.7758C41.227 65.2687 39.9381 67.1729 38.2514 68.4883C36.5647 69.7931 34.5226 70.4455 32.1251 70.4455ZM32.1251 66.9448C34.5014 66.9448 36.3472 65.7991 37.6626 63.5077C38.9781 61.2163 39.6358 57.949 39.6358 53.7057C39.6358 50.8839 39.3334 48.4811 38.7288 46.4973C38.1347 44.5136 37.2754 43.0019 36.1509 41.9623C35.0371 40.9227 33.6951 40.4029 32.1251 40.4029C29.7701 40.4029 27.9295 41.5645 26.6035 43.8877C25.2774 46.2003 24.6144 49.473 24.6144 53.7057C24.6144 56.5275 24.9115 58.9249 25.5055 60.8981C26.0996 62.8712 26.9536 64.3723 28.0674 65.4013C29.1919 66.4303 30.5445 66.9448 32.1251 66.9448ZM48.7377 63.3168V60.0706L63.0589 37.4113H65.4139V42.4397H63.8227L53.0022 59.5614V59.816H72.2881V63.3168H48.7377ZM64.0773 70V62.3302V60.8185V37.4113H67.8326V70H64.0773Z" fill="#EBEBEB"/>
<path d="M2.10766 27.9139L46.2406 2.43371L90.3735 27.9139V78.8742L46.2406 104.354L2.10766 78.8742V27.9139Z" stroke="#DB0E4B" stroke-width="4.21532"/>
</svg>
