<svg width="93" height="107" viewBox="0 0 93 107" fill="none" xmlns="http://www.w3.org/2000/svg">
<path d="M32.369 70.4455C29.9715 70.4455 27.9294 69.7931 26.2427 68.4883C24.556 67.1729 23.2671 65.2687 22.376 62.7758C21.4849 60.2722 21.0394 57.2488 21.0394 53.7057C21.0394 50.1837 21.4849 47.1763 22.376 44.6833C23.2777 42.1798 24.5719 40.2703 26.2586 38.9548C27.956 37.6288 29.9927 36.9658 32.369 36.9658C34.7453 36.9658 36.7768 37.6288 38.4635 38.9548C40.1608 40.2703 41.455 42.1798 42.3461 44.6833C43.2478 47.1763 43.6987 50.1837 43.6987 53.7057C43.6987 57.2488 43.2531 60.2722 42.362 62.7758C41.4709 65.2687 40.182 67.1729 38.4953 68.4883C36.8086 69.7931 34.7665 70.4455 32.369 70.4455ZM32.369 66.9448C34.7453 66.9448 36.5911 65.7991 37.9065 63.5077C39.222 61.2163 39.8797 57.949 39.8797 53.7057C39.8797 50.8839 39.5773 48.4811 38.9727 46.4973C38.3786 44.5136 37.5193 43.0019 36.3949 41.9623C35.281 40.9227 33.939 40.4029 32.369 40.4029C30.014 40.4029 28.1734 41.5645 26.8474 43.8877C25.5214 46.2003 24.8583 49.473 24.8583 53.7057C24.8583 56.5275 25.1554 58.9249 25.7494 60.8981C26.3435 62.8712 27.1975 64.3723 28.3113 65.4013C29.4358 66.4303 30.7884 66.9448 32.369 66.9448ZM59.9294 70.4455C58.0623 70.4455 56.3809 70.0743 54.8851 69.3317C53.3893 68.5891 52.1906 67.5707 51.2889 66.2765C50.3872 64.9823 49.8939 63.5077 49.809 61.8528H53.628C53.7765 63.3274 54.4449 64.5473 55.633 65.5127C56.8317 66.4674 58.2639 66.9448 59.9294 66.9448C61.266 66.9448 62.4541 66.6319 63.4937 66.006C64.544 65.3801 65.3661 64.5208 65.9602 63.4282C66.5648 62.3249 66.8672 61.0784 66.8672 59.6887C66.8672 58.2672 66.5542 56.9995 65.9283 55.8857C65.3131 54.7612 64.4644 53.8754 63.3824 53.2283C62.3003 52.5812 61.0644 52.2523 59.6748 52.2417C58.6776 52.2311 57.6539 52.3849 56.6037 52.7032C55.5534 53.0108 54.6889 53.4086 54.0099 53.8966L50.3182 53.4511L52.2914 37.4113H69.2222V40.9121H55.6012L54.4555 50.5232H54.6464C55.3147 49.9928 56.1528 49.5525 57.1606 49.2024C58.1684 48.8524 59.2186 48.6773 60.3113 48.6773C62.3056 48.6773 64.0825 49.1547 65.6419 50.1095C67.2119 51.0536 68.4425 52.3478 69.3336 53.9921C70.2353 55.6364 70.6862 57.514 70.6862 59.6251C70.6862 61.7043 70.2194 63.5608 69.2859 65.1944C68.3629 66.8175 67.09 68.1011 65.4669 69.0453C63.8438 69.9788 61.998 70.4455 59.9294 70.4455Z" fill="#EBEBEB"/>
<path d="M2.10766 27.9139L46.2406 2.43371L90.3735 27.9139V78.8742L46.2406 104.354L2.10766 78.8742V27.9139Z" stroke="#0FC5AF" stroke-width="4.21532"/>
</svg>
