<svg width="73" height="73" viewBox="0 0 73 73" fill="none" xmlns="http://www.w3.org/2000/svg">
<path d="M53.1565 10.5408L61.1427 12.6807L63.2826 20.6669L57.4363 26.5132L49.4501 24.3733L47.3102 16.3871L53.1565 10.5408Z" stroke="#EBEBEB" stroke-width="3"/>
<path d="M16.387 47.3103L24.3732 49.4502L26.5131 57.4365L20.6668 63.2828L12.6805 61.1429L10.5406 53.1567L16.387 47.3103Z" stroke="#EBEBEB" stroke-width="3"/>
<path d="M16.387 10.5408L24.3732 12.6807L26.5131 20.6669L20.6668 26.5132L12.6805 24.3733L10.5406 16.3871L16.387 10.5408Z" stroke="#EBEBEB" stroke-width="3"/>
<path d="M34.7717 28.9256L42.7579 31.0655L44.8978 39.0517L39.0515 44.898L31.0653 42.7581L28.9254 34.7719L34.7717 28.9256Z" stroke="#EBEBEB" stroke-width="3"/>
<path d="M53.1565 47.3103L61.1427 49.4502L63.2826 57.4365L57.4363 63.2828L49.4501 61.1429L47.3102 53.1567L53.1565 47.3103Z" stroke="#EBEBEB" stroke-width="3"/>
</svg>
