<svg width="72" height="72" viewBox="0 0 72 72" fill="none" xmlns="http://www.w3.org/2000/svg">
<path d="M10 0L18.6603 5V15L10 20L1.33975 15V5L10 0Z" fill="#DB0E4B"/>
<path d="M28.8397 5.86603L36 1.73205L43.1603 5.86603V14.134L36 18.268L28.8397 14.134V5.86603Z" stroke="#EBEBEB" stroke-width="3"/>
<path d="M62 0L70.6603 5V15L62 20L53.3397 15V5L62 0Z" fill="#DB0E4B"/>
<path d="M10 52L18.6603 57V67L10 72L1.33975 67V57L10 52Z" fill="#DB0E4B"/>
<path d="M28.8397 57.866L36 53.7321L43.1603 57.866V66.134L36 70.268L28.8397 66.134V57.866Z" stroke="#EBEBEB" stroke-width="3"/>
<path d="M62 52L70.6603 57V67L62 72L53.3397 67V57L62 52Z" fill="#DB0E4B"/>
<path d="M2.83975 31.866L10 27.7321L17.1603 31.866V40.134L10 44.268L2.83975 40.134V31.866Z" stroke="#EBEBEB" stroke-width="3"/>
<path d="M28.8397 31.866L36 27.7321L43.1603 31.866V40.134L36 44.268L28.8397 40.134V31.866Z" stroke="#EBEBEB" stroke-width="3"/>
<path d="M54.8397 31.866L62 27.7321L69.1603 31.866V40.134L62 44.268L54.8397 40.134V31.866Z" stroke="#EBEBEB" stroke-width="3"/>
</svg>
