<svg width="603" height="408" viewBox="0 0 603 408" fill="none" xmlns="http://www.w3.org/2000/svg">
<g id="Logo">
<path id="Wheat" fill-rule="evenodd" clip-rule="evenodd" d="M57.5981 75.74C57.3966 75.8935 57.2696 76.1481 57.3117 76.4501L58.389 84.177C58.7473 86.7467 58.9022 89.3376 58.8523 91.9252L58.7879 95.2596C58.5243 108.915 68.4901 120.505 81.5197 122.552L89.4204 136.005C81.3985 131.895 72.2635 130.421 63.3429 131.901L58.413 132.718C54.5707 133.355 50.6528 133.459 46.7679 133.027L36.3322 131.868C34.8429 131.702 33.7784 133.271 34.4877 134.629L36.8125 139.08C49.8275 163.995 80.0466 173.741 104.399 161.51L122.416 192.19C112.55 186.456 101.035 184.273 89.8175 186.112L84.0511 187.058C79.5364 187.798 74.9311 187.91 70.363 187.391L58.1487 186.002C56.577 185.823 55.4805 187.479 56.2183 188.89L58.9507 194.118C74.356 223.591 110.234 234.995 138.752 220.005L155.309 248.199C143.91 241.279 130.457 238.608 117.359 240.764L110.794 241.846C105.636 242.695 100.377 242.827 95.1596 242.239L81.2571 240.672C79.6255 240.488 78.4769 242.207 79.2469 243.68L82.3521 249.622C99.8763 283.157 140.83 296.021 173.269 278.709L189.203 305.84C189.529 306.342 191.414 305.781 191.921 305.484L192.717 305.016C193.224 304.719 194.634 303.345 194.354 302.815L178.402 275.652C208.779 255.581 217.218 213.928 196.617 182.517L192.94 176.911C192.028 175.521 189.968 175.686 189.334 177.201L183.93 190.106C181.903 194.949 179.225 199.478 175.971 203.568L171.829 208.775C163.903 218.739 159.697 231.152 159.8 243.908L143.95 216.919C170.557 199.198 177.885 162.571 159.753 134.919L156.519 129.986C155.646 128.654 153.666 128.805 153.056 130.265L148.319 141.609C146.548 145.851 144.207 149.819 141.361 153.401L137.726 157.977C130.883 166.591 127.195 177.286 127.148 188.309L109.611 158.449C132.156 143.139 138.364 112 122.944 88.4967L120.189 84.2985C119.349 83.0177 117.46 83.1831 116.879 84.5644L112.809 94.2432C111.294 97.8463 109.294 101.217 106.866 104.263L103.751 108.17C98.1138 115.24 94.9511 123.936 94.6329 132.944L86.867 119.72C91.5145 107.313 86.253 92.8832 74.1545 86.4382L71.2111 84.8702C68.9269 83.6534 66.7396 82.2561 64.6699 80.6915L58.4465 75.9867C58.2032 75.8028 57.919 75.7897 57.6868 75.8909L60.8298 81.2429L63.0386 82.9127C65.2269 84.5669 67.5396 86.0444 69.9547 87.3309L72.8981 88.8989C84.206 94.9227 88.8439 108.739 83.6802 120.152L83.9844 120.67L83.5915 120.001C71.1085 118.951 61.3017 108.171 61.5489 95.361L61.6133 92.0265C61.6661 89.2907 61.5023 86.5512 61.1235 83.8343L60.7411 81.0919L57.5981 75.74ZM120.649 90.0086L118.796 87.1839L115.354 95.3691C113.741 99.2041 111.613 102.792 109.029 106.033L105.914 109.94C99.6587 117.785 96.6649 127.77 97.5074 137.838L108.19 156.028C129.387 141.515 135.185 112.164 120.649 90.0086ZM92.2949 140.9L102.977 159.089C79.9773 170.532 51.5193 161.299 39.2505 137.812L37.6863 134.818L46.5116 135.798C50.6465 136.258 54.8162 136.147 58.9053 135.469L63.8353 134.652C73.7336 133.01 83.9118 135.259 92.2949 140.9ZM127.34 200.574L137.331 217.587C110.175 231.779 76.0537 220.907 61.3884 192.85L59.3437 188.938L70.0997 190.161C74.9182 190.709 79.7761 190.591 84.5386 189.81L90.3051 188.864C102.435 186.875 114.936 189.871 125.042 197.183L127.34 200.574ZM161.844 259.326L171.817 276.309C140.74 292.801 101.566 280.457 84.7899 248.354L82.2998 243.589L94.899 245.01C100.366 245.626 105.878 245.487 111.283 244.597L117.848 243.516C131.719 241.232 146.01 244.646 157.552 252.995L161.844 259.326ZM177.01 273.214L162.851 249.104C161.402 235.202 165.393 221.355 173.994 210.543L178.136 205.336C181.546 201.049 184.352 196.303 186.477 191.228L191.374 179.533L194.322 184.029C214.038 214.089 206.009 253.935 177.01 273.214ZM142.529 214.5L130.16 193.438C128.905 181.283 132.389 169.187 139.892 159.743L143.527 155.167C146.529 151.388 148.998 147.203 150.867 142.728L155.038 132.739L157.459 136.43C174.714 162.746 167.778 197.58 142.529 214.5Z" fill="#EBEBEB" stroke="#EBEBEB" stroke-width="4.70813"/>
<path id="Polygon 18" d="M374.556 203.52L429.861 107.567L540.612 107.487L596.056 203.359L540.751 299.311L430.001 299.392L374.556 203.52Z" stroke="#0FC5AF" stroke-width="11.7703"/>
<path id="Subtract" d="M408.954 101.818L356.293 10.7586L250.963 10.8354L198.364 102.092L251.096 193.272L356.068 193.196L356.076 203.775L244.995 203.856L186.148 102.101L244.847 0.260705L362.393 0.175049L421.17 101.809L408.954 101.818Z" fill="#DB0E4B"/>
<path id="Subtract_2" d="M250.767 214.777L198.508 305.446L251.239 396.626L356.569 396.549L409.098 305.413L421.314 305.404L362.685 407.124L245.139 407.21L186.292 305.455L238.552 214.786L250.767 214.777Z" fill="#E7AA0D"/>
</g>
</svg>
