<svg width="75" height="76" viewBox="0 0 75 76" fill="none" xmlns="http://www.w3.org/2000/svg">
<path d="M6.5 19.866L37.909 1.73205L69.3179 19.866V56.134L37.909 74.2679L6.5 56.134V19.866Z" stroke="#E7AA0D" stroke-width="3"/>
<path d="M32.4399 25.2032V37.046C32.4399 37.046 36.6129 37.046 38.8462 36.8764C40.6026 36.5689 40.9258 36.3994 41.2491 34.6431L41.8956 32.0707H43.8057L43.4824 37.6925L43.652 43.4523H41.7261L41.2491 41.2032C40.7721 39.6026 40.1255 39.2773 38.8462 39.1236C37.2457 38.954 32.4399 38.954 32.4399 38.954V48.8868C32.4399 50.7968 33.4098 51.6129 35.6431 51.6129H42.3727C44.4523 51.6129 46.5299 51.4434 47.8249 48.4098L49.5655 44.5601H51.1818C51.0123 45.3604 50.212 52.4132 50.0583 54C50.0583 54 43.9752 53.8462 41.4186 53.8462H29.8833L23 54V52.2595L25.2333 51.7667C26.8497 51.4434 27.3267 50.9664 27.3267 49.6871C27.3267 49.6871 27.4962 45.3604 27.4962 38.1518C27.4962 30.9609 27.3267 26.6323 27.3267 26.6323C27.3267 25.1992 26.8497 24.8759 25.2333 24.5527L23 24.0796V22.3233L29.7296 22.4613H42.5422C45.0988 22.4613 49.4098 22 49.4098 22C49.4098 22 49.256 24.7104 49.0865 31.1167H47.3302L46.6836 28.8676C46.0529 25.9877 45.0968 24.5546 43.3267 24.5546H33.256C32.4399 24.5566 32.4399 24.7104 32.4399 25.2032Z" fill="#EBEBEB"/>
</svg>
