<svg
    width="603"
    height="408"
    viewBox="0 0 603 408"
    fill="none"
    xmlns="http://www.w3.org/2000/svg"
>
    <g id="Logo">
        <path id="Hexagons" fill-rule="evenodd" clip-rule="evenodd"
            d="M408.954 102.566L356.292 11.506L250.962 11.5827L198.364 102.84L251.095 194.02L356.068 193.943L356.076 204.522L244.995 204.603L186.148 102.848L244.847 1.00809L362.392 0.922431L421.17 102.557L408.954 102.566ZM433.263 114.198L381.352 204.263L433.395 294.252L537.349 294.176L589.261 204.111L537.218 114.122L433.263 114.198ZM544.005 102.347L426.459 102.432L367.761 204.273L426.608 306.027L544.153 305.942L602.852 204.101L544.005 102.347ZM198.508 306.193L250.767 215.525L238.552 215.534L186.292 306.202L245.139 407.957L362.685 407.871L421.314 306.152L409.098 306.161L356.569 397.297L251.239 397.373L198.508 306.193Z"
            fill="#EBEBEB" />
        <path id="Wheat" fill-rule="evenodd" clip-rule="evenodd"
            d="M57.5976 76.487C57.3961 76.6406 57.2691 76.8952 57.3112 77.1972L58.3885 84.9241C58.7468 87.4937 58.9017 90.0847 58.8518 92.6723L58.7874 96.0067C58.5238 109.663 68.4896 121.252 81.5192 123.299L89.4199 136.752C81.398 132.642 72.263 131.168 63.3425 132.648L58.4126 133.465C54.5702 134.102 50.6523 134.206 46.7674 133.775L36.3317 132.615C34.8424 132.449 33.7779 134.018 34.4872 135.376L36.812 139.827C49.827 164.742 80.0461 174.488 104.398 162.257L122.416 192.937C112.55 187.203 101.034 185.02 89.817 186.859L84.0506 187.805C79.5359 188.545 74.9306 188.657 70.3625 188.138L58.1482 186.749C56.5765 186.57 55.48 188.226 56.2178 189.637L58.9502 194.865C74.3555 224.338 110.233 235.742 138.751 220.752L155.309 248.946C143.909 242.026 130.456 239.355 117.358 241.512L110.793 242.593C105.636 243.442 100.376 243.574 95.1591 242.986L81.2567 241.419C79.625 241.235 78.4764 242.954 79.2464 244.427L82.3516 250.369C99.8758 283.904 140.829 296.768 173.269 279.456L189.202 306.588C189.529 307.09 191.414 306.528 191.92 306.231L192.717 305.763C193.223 305.466 194.633 304.092 194.354 303.562L178.401 276.399C208.779 256.328 217.217 214.675 196.617 183.264L192.94 177.658C192.028 176.268 189.967 176.434 189.333 177.948L183.93 190.853C181.902 195.696 179.225 200.225 175.971 204.316L171.829 209.522C163.903 219.486 159.697 231.899 159.799 244.655L143.949 217.666C170.557 199.945 177.885 163.318 159.753 135.666L156.519 130.733C155.645 129.401 153.665 129.552 153.056 131.012L148.319 142.356C146.547 146.598 144.206 150.566 141.361 154.148L137.726 158.724C130.883 167.338 127.194 178.033 127.147 189.056L109.611 159.196C132.155 143.886 138.364 112.747 122.943 89.2438L120.189 85.0456C119.349 83.7647 117.46 83.9301 116.879 85.3114L112.808 94.9903C111.293 98.5934 109.294 101.964 106.866 105.01L103.75 108.917C98.1133 115.987 94.9506 124.683 94.6324 133.691L86.8665 120.467C91.5141 108.06 86.2525 93.6303 74.154 87.1853L71.2106 85.6173C68.9264 84.4005 66.7391 83.0031 64.6694 81.4385L58.446 76.7338C58.2027 76.5499 57.9185 76.5368 57.6863 76.638L60.8293 81.99L63.0381 83.6597C65.2264 85.314 67.5391 86.7915 69.9542 88.078L72.8976 89.646C84.2055 95.6698 88.8434 109.486 83.6797 120.899L83.9839 121.417L83.591 120.748C71.108 119.698 61.3012 108.918 61.5485 96.108L61.6128 92.7736C61.6656 90.0378 61.5019 87.2983 61.123 84.5814L60.7407 81.839L57.5976 76.487ZM120.649 90.7557L118.796 87.9309L115.353 96.1161C113.74 99.9512 111.612 103.539 109.028 106.78L105.913 110.687C99.6582 118.532 96.6644 128.517 97.5069 138.585L108.189 156.775C129.386 142.262 135.185 112.911 120.649 90.7557ZM92.2944 141.647L102.977 159.836C79.9768 171.279 51.5188 162.046 39.25 138.559L37.6858 135.565L46.5111 136.545C50.646 137.005 54.8158 136.894 58.9049 136.216L63.8348 135.399C73.7331 133.757 83.9113 136.006 92.2944 141.647ZM127.34 201.321L137.331 218.334C110.175 232.527 76.0532 221.654 61.3879 193.597L59.3432 189.685L70.0992 190.908C74.9177 191.456 79.7756 191.338 84.5381 190.557L90.3046 189.611C102.434 187.622 114.936 190.618 125.042 197.93L127.34 201.321ZM161.843 260.073L171.817 277.056C140.739 293.548 101.565 281.204 84.7894 249.101L82.2993 244.336L94.8985 245.757C100.366 246.373 105.878 246.234 111.283 245.344L117.848 244.263C131.719 241.979 146.01 245.393 157.552 253.742L161.843 260.073ZM177.01 273.961L162.85 249.851C161.401 235.949 165.393 222.102 173.993 211.29L178.135 206.083C181.545 201.797 184.352 197.05 186.476 191.975L191.373 180.28L194.322 184.776C214.037 214.836 206.009 254.682 177.01 273.961ZM142.528 215.247L130.159 194.185C128.904 182.03 132.389 169.934 139.892 160.49L143.526 155.914C146.528 152.135 148.998 147.95 150.866 143.475L155.038 133.486L157.458 137.177C174.714 163.493 167.777 198.327 142.528 215.247Z"
            fill="#EBEBEB" stroke="#EBEBEB" stroke-width="4.70813" />
    </g>
</svg>