<svg width="75" height="76" viewBox="0 0 75 76" fill="none" xmlns="http://www.w3.org/2000/svg">
<path d="M6.5 19.866L37.909 1.73205L69.3179 19.866V56.134L37.909 74.2679L6.5 56.134V19.866Z" stroke="#DB0E4B" stroke-width="3"/>
<path fill-rule="evenodd" clip-rule="evenodd" d="M38.0182 17C25.8427 17 16 26.8541 16 39.045C16 48.7899 22.3066 57.0387 31.0554 59.9582C32.1493 60.1776 32.5499 59.4838 32.5499 58.9002C32.5499 58.3891 32.5139 56.6373 32.5139 54.8121C26.3889 56.1263 25.1135 52.1842 25.1135 52.1842C24.1292 49.6292 22.6707 48.9726 22.6707 48.9726C20.666 47.6221 22.8167 47.6221 22.8167 47.6221C25.0405 47.7682 26.2073 49.885 26.2073 49.885C28.1755 53.2426 31.347 52.2939 32.6229 51.7098C32.805 50.2863 33.3887 49.3009 34.0084 48.7536C29.1233 48.2425 23.9836 46.3447 23.9836 37.8769C23.9836 35.468 24.8579 33.4972 26.2434 31.9644C26.0248 31.417 25.2591 29.1537 26.4624 26.1245C26.4624 26.1245 28.3215 25.5404 32.5134 28.3873C34.3081 27.9048 36.159 27.6593 38.0182 27.6572C39.8773 27.6572 41.7725 27.913 43.5225 28.3873C47.7149 25.5404 49.574 26.1245 49.574 26.1245C50.7774 29.1537 50.0112 31.417 49.7926 31.9644C51.2145 33.4972 52.0528 35.468 52.0528 37.8769C52.0528 46.3447 46.9131 48.2058 41.9915 48.7536C42.7938 49.4469 43.486 50.7607 43.486 52.8412C43.486 55.7975 43.45 58.1701 43.45 58.8997C43.45 59.4838 43.8511 60.1776 44.9445 59.9586C53.6933 57.0382 59.9999 48.7899 59.9999 39.045C60.036 26.8541 50.1572 17 38.0182 17Z" fill="#EBEBEB"/>
</svg>
