<svg width="93" height="107" viewBox="0 0 93 107" fill="none" xmlns="http://www.w3.org/2000/svg">
<path d="M32.4346 70.4455C30.0372 70.4455 27.9951 69.7931 26.3084 68.4883C24.6216 67.1729 23.3327 65.2687 22.4416 62.7758C21.5505 60.2722 21.105 57.2488 21.105 53.7057C21.105 50.1837 21.5505 47.1763 22.4416 44.6833C23.3433 42.1798 24.6375 40.2703 26.3243 38.9548C28.0216 37.6288 30.0584 36.9658 32.4346 36.9658C34.8109 36.9658 36.8424 37.6288 38.5291 38.9548C40.2264 40.2703 41.5206 42.1798 42.4117 44.6833C43.3134 47.1763 43.7643 50.1837 43.7643 53.7057C43.7643 57.2488 43.3188 60.2722 42.4277 62.7758C41.5366 65.2687 40.2477 67.1729 38.5609 68.4883C36.8742 69.7931 34.8321 70.4455 32.4346 70.4455ZM32.4346 66.9448C34.8109 66.9448 36.6567 65.7991 37.9722 63.5077C39.2876 61.2163 39.9453 57.949 39.9453 53.7057C39.9453 50.8839 39.643 48.4811 39.0383 46.4973C38.4442 44.5136 37.585 43.0019 36.4605 41.9623C35.3466 40.9227 34.0047 40.4029 32.4346 40.4029C30.0796 40.4029 28.2391 41.5645 26.913 43.8877C25.587 46.2003 24.924 49.473 24.924 53.7057C24.924 56.5275 25.221 58.9249 25.8151 60.8981C26.4091 62.8712 27.2631 64.3723 28.377 65.4013C29.5015 66.4303 30.854 66.9448 32.4346 66.9448ZM49.811 70V67.1358L60.5678 55.3606C61.8302 53.9815 62.8698 52.7827 63.6867 51.7643C64.5035 50.7353 65.1082 49.77 65.5007 48.8683C65.9038 47.956 66.1054 47.0012 66.1054 46.004C66.1054 44.8583 65.8296 43.8665 65.2779 43.0284C64.7369 42.1904 63.9943 41.5433 63.0502 41.0871C62.106 40.6309 61.0452 40.4029 59.8677 40.4029C58.6159 40.4029 57.5233 40.6628 56.5897 41.1826C55.6668 41.6918 54.9507 42.4078 54.4415 43.3307C53.943 44.2537 53.6937 45.3357 53.6937 46.5769H49.9383C49.9383 44.6674 50.3786 42.9913 51.2591 41.5486C52.1395 40.1058 53.3383 38.9813 54.8553 38.1751C56.3829 37.3689 58.0961 36.9658 59.995 36.9658C61.9045 36.9658 63.5965 37.3689 65.0711 38.1751C66.5456 38.9813 67.7019 40.0687 68.54 41.4372C69.378 42.8056 69.7971 44.3279 69.7971 46.004C69.7971 47.2028 69.5796 48.375 69.1446 49.5207C68.7203 50.6558 67.9777 51.9235 66.9169 53.3238C65.8667 54.7134 64.408 56.4108 62.541 58.4157L55.2213 66.2447V66.4993H70.3699V70H49.811Z" fill="#EBEBEB"/>
<path d="M2.10766 27.9139L46.2406 2.43371L90.3735 27.9139V78.8742L46.2406 104.354L2.10766 78.8742V27.9139Z" stroke="#0FC5AF" stroke-width="4.21532"/>
</svg>
