<svg width="75" height="76" viewBox="0 0 75 76" fill="none" xmlns="http://www.w3.org/2000/svg">
<path d="M6.5 19.866L37.909 1.73205L69.3179 19.866V56.134L37.909 74.2679L6.5 56.134V19.866Z" stroke="#0FC5AF" stroke-width="3"/>
<path d="M28.055 25.4783C28.055 27.3997 26.4825 28.9565 24.5417 28.9565C22.6008 28.9565 21.0283 27.3997 21.0283 25.4783C21.0283 23.5583 22.6008 22 24.5417 22C26.4825 22 28.055 23.5583 28.055 25.4783ZM28.0833 31.7391H21V54H28.0833V31.7391ZM39.3912 31.7391H32.3532V54H39.3926V42.3144C39.3926 35.817 47.9337 35.2856 47.9337 42.3144V54H55V39.9047C55 28.9412 42.3605 29.3405 39.3912 34.7374V31.7391Z" fill="#EBEBEB"/>
</svg>
