<svg width="603" height="408" viewBox="0 0 603 408" fill="none" xmlns="http://www.w3.org/2000/svg">
<g clip-path="url(#clip0_353_330)">
<path d="M186 101.767L244.755 0H362.265L421.02 101.767L420.885 102H541.25L603 204L541.25 306H420.308L362.265 406.533H244.755L186 304.767L244.601 203.267L186 101.767Z" fill="#EBEBEB"/>
<path d="M57.424 76.063C57.2225 76.2165 57.0068 76.3201 57.0489 76.6222L58.1263 84.3491C58.4845 86.9187 58.6394 89.5097 58.5895 92.0972L58.5251 95.4317C58.2615 109.088 68.2273 120.677 81.2569 122.724L89.1576 136.177C81.1357 132.067 72.0007 130.594 63.0802 132.073L58.1503 132.89C54.3079 133.527 50.39 133.631 46.5051 133.2L36.0695 132.04C34.5802 131.874 33.5157 133.443 34.225 134.801L36.5497 139.252C49.5647 164.167 79.7839 173.913 104.136 161.682L122.154 192.362C112.287 186.628 100.772 184.445 89.5548 186.284L83.7884 187.23C79.2736 187.97 74.6684 188.082 70.1003 187.563L57.886 186.174C56.3142 185.995 55.2178 187.651 55.9556 189.062L58.6879 194.29C74.0932 223.763 109.971 235.166 138.489 220.177L155.046 248.371C143.647 241.451 130.194 238.779 117.096 240.936L110.531 242.017C105.374 242.867 100.114 242.999 94.8967 242.411L80.9943 240.844C79.3626 240.66 78.214 242.378 78.984 243.852L82.0892 249.794C99.6134 283.329 140.567 296.193 173.007 278.881L188.94 306.012C189.266 306.514 191.152 305.953 191.658 305.656L192.454 305.188C192.961 304.891 194.371 303.517 194.091 302.987L178.139 275.824C208.516 255.753 216.955 214.099 196.354 182.689L192.677 177.083C191.765 175.692 189.705 175.858 189.071 177.373L183.668 190.278C181.64 195.121 178.962 199.65 175.708 203.74L171.566 208.947C163.64 218.911 159.435 231.324 159.537 244.08L143.687 217.091C170.294 199.37 177.623 162.743 159.491 135.091L156.256 130.158C155.383 128.826 153.403 128.977 152.793 130.437L148.057 141.781C146.285 146.024 143.944 149.991 141.098 153.573L137.464 158.149C130.62 166.763 126.932 177.458 126.885 188.481L109.349 158.621C131.893 143.311 138.101 112.172 122.681 88.6688L119.927 84.4706C119.086 83.1897 117.197 83.3552 116.617 84.7365L112.546 94.4153C111.031 98.0184 109.032 101.389 106.603 104.435L103.488 108.342C97.8511 115.412 94.6884 124.108 94.3702 133.116L86.6042 119.892C91.2518 107.485 85.9902 93.0553 73.8917 86.6103L70.9483 85.0423C68.6641 83.8255 66.4768 82.4281 64.4071 80.8635L58.1837 76.1588C57.9404 75.9749 57.6562 75.9618 57.424 76.063Z" fill="#EBEBEB" stroke="#EBEBEB" stroke-width="4.71"/>
</g>
<defs>
<clipPath id="clip0_353_330">
<rect width="602.85" height="407.03" fill="white"/>
</clipPath>
</defs>
</svg>
