<svg width="72" height="72" viewBox="0 0 72 72" fill="none" xmlns="http://www.w3.org/2000/svg">
<path d="M10 0L18.6603 5V15L10 20L1.33975 15V5L10 0Z" fill="#EBEBEB"/>
<path d="M36 0L44.6603 5V15L36 20L27.3397 15V5L36 0Z" fill="#EBEBEB"/>
<path d="M62 0L70.6603 5V15L62 20L53.3397 15V5L62 0Z" fill="#EBEBEB"/>
<path d="M10 52L18.6603 57V67L10 72L1.33975 67V57L10 52Z" fill="#EBEBEB"/>
<path d="M36 52L44.6603 57V67L36 72L27.3397 67V57L36 52Z" fill="#EBEBEB"/>
<path d="M62 52L70.6603 57V67L62 72L53.3397 67V57L62 52Z" fill="#EBEBEB"/>
<path d="M10 26L18.6603 31V41L10 46L1.33975 41V31L10 26Z" fill="#EBEBEB"/>
<path d="M36 26L44.6603 31V41L36 46L27.3397 41V31L36 26Z" fill="#EBEBEB"/>
<path d="M62 26L70.6603 31V41L62 46L53.3397 41V31L62 26Z" fill="#EBEBEB"/>
</svg>
