<svg width="93" height="107" viewBox="0 0 93 107" fill="none" xmlns="http://www.w3.org/2000/svg">
<path d="M32.2345 70.4455C29.837 70.4455 27.7949 69.7931 26.1082 68.4883C24.4215 67.1729 23.1326 65.2687 22.2415 62.7758C21.3504 60.2722 20.9048 57.2488 20.9048 53.7057C20.9048 50.1837 21.3504 47.1763 22.2415 44.6833C23.1432 42.1798 24.4374 40.2703 26.1241 38.9548C27.8214 37.6288 29.8582 36.9658 32.2345 36.9658C34.6108 36.9658 36.6422 37.6288 38.329 38.9548C40.0263 40.2703 41.3205 42.1798 42.2116 44.6833C43.1133 47.1763 43.5642 50.1837 43.5642 53.7057C43.5642 57.2488 43.1186 60.2722 42.2275 62.7758C41.3364 65.2687 40.0475 67.1729 38.3608 68.4883C36.6741 69.7931 34.632 70.4455 32.2345 70.4455ZM32.2345 66.9448C34.6108 66.9448 36.4566 65.7991 37.772 63.5077C39.0875 61.2163 39.7452 57.949 39.7452 53.7057C39.7452 50.8839 39.4428 48.4811 38.8382 46.4973C38.2441 44.5136 37.3848 43.0019 36.2603 41.9623C35.1465 40.9227 33.8045 40.4029 32.2345 40.4029C29.8795 40.4029 28.0389 41.5645 26.7129 43.8877C25.3868 46.2003 24.7238 49.473 24.7238 53.7057C24.7238 56.5275 25.0209 58.9249 25.6149 60.8981C26.209 62.8712 27.063 64.3723 28.1768 65.4013C29.3013 66.4303 30.6539 66.9448 32.2345 66.9448ZM60.6223 70.4455C58.5218 70.4455 56.6495 70.0849 55.0052 69.3635C53.3715 68.6421 52.072 67.6397 51.1067 66.3561C50.1519 65.0618 49.6321 63.5608 49.5472 61.8528H53.5572C53.642 62.9031 54.0027 63.8101 54.6392 64.5739C55.2757 65.327 56.1085 65.9105 57.1375 66.3242C58.1665 66.7379 59.3069 66.9448 60.5586 66.9448C61.9589 66.9448 63.2001 66.7008 64.2822 66.2128C65.3642 65.7249 66.2129 65.0459 66.8281 64.176C67.4434 63.3062 67.7511 62.2984 67.7511 61.1527C67.7511 59.9539 67.454 58.8984 66.86 57.9861C66.2659 57.0632 65.396 56.3418 64.2503 55.822C63.1046 55.3022 61.7043 55.0423 60.0494 55.0423H57.4398V51.5416H60.0494C61.3437 51.5416 62.4787 51.3082 63.4547 50.8414C64.4413 50.3747 65.2104 49.7169 65.762 48.8683C66.3242 48.0196 66.6054 47.0224 66.6054 45.8767C66.6054 44.7735 66.3614 43.8134 65.8734 42.9966C65.3854 42.1798 64.6959 41.5433 63.8048 41.0871C62.9243 40.6309 61.8847 40.4029 60.6859 40.4029C59.5615 40.4029 58.5006 40.6097 57.5035 41.0234C56.5169 41.4266 55.7107 42.0153 55.0848 42.7897C54.4589 43.5535 54.1194 44.4764 54.0664 45.5585H50.2474C50.311 43.8506 50.8255 42.3548 51.7909 41.0712C52.7562 39.777 54.0186 38.7692 55.578 38.0478C57.1481 37.3265 58.8719 36.9658 60.7496 36.9658C62.7652 36.9658 64.4943 37.3742 65.937 38.191C67.3798 38.9973 68.4883 40.0634 69.2627 41.3894C70.0372 42.7155 70.4244 44.1476 70.4244 45.6858C70.4244 47.521 69.9417 49.0857 68.9763 50.38C68.0216 51.6742 66.7221 52.5706 65.0778 53.0692V53.3238C67.1358 53.6632 68.7429 54.5384 69.8992 55.9493C71.0555 57.3496 71.6337 59.0841 71.6337 61.1527C71.6337 62.9243 71.151 64.5155 70.1857 65.9264C69.2309 67.3267 67.9261 68.43 66.2712 69.2362C64.6163 70.0424 62.7333 70.4455 60.6223 70.4455Z" fill="#EBEBEB"/>
<path d="M2.10766 27.9139L46.2406 2.43371L90.3735 27.9139V78.8742L46.2406 104.354L2.10766 78.8742V27.9139Z" stroke="#E7AA0D" stroke-width="4.21532"/>
</svg>
