<svg width="93" height="107" viewBox="0 0 93 107" fill="none" xmlns="http://www.w3.org/2000/svg">
<path d="M32.0189 70.4455C29.6215 70.4455 27.5794 69.7931 25.8926 68.4883C24.2059 67.1729 22.917 65.2687 22.0259 62.7758C21.1348 60.2722 20.6893 57.2488 20.6893 53.7057C20.6893 50.1837 21.1348 47.1763 22.0259 44.6833C22.9276 42.1798 24.2218 40.2703 25.9086 38.9548C27.6059 37.6288 29.6427 36.9658 32.0189 36.9658C34.3952 36.9658 36.4267 37.6288 38.1134 38.9548C39.8107 40.2703 41.1049 42.1798 41.996 44.6833C42.8977 47.1763 43.3486 50.1837 43.3486 53.7057C43.3486 57.2488 42.903 60.2722 42.0119 62.7758C41.1208 65.2687 39.8319 67.1729 38.1452 68.4883C36.4585 69.7931 34.4164 70.4455 32.0189 70.4455ZM32.0189 66.9448C34.3952 66.9448 36.241 65.7991 37.5565 63.5077C38.8719 61.2163 39.5296 57.949 39.5296 53.7057C39.5296 50.8839 39.2273 48.4811 38.6226 46.4973C38.0285 44.5136 37.1693 43.0019 36.0448 41.9623C34.9309 40.9227 33.589 40.4029 32.0189 40.4029C29.6639 40.4029 27.8234 41.5645 26.4973 43.8877C25.1713 46.2003 24.5083 49.473 24.5083 53.7057C24.5083 56.5275 24.8053 58.9249 25.3994 60.8981C25.9934 62.8712 26.8474 64.3723 27.9613 65.4013C29.0857 66.4303 30.4383 66.9448 32.0189 66.9448ZM60.2158 70.4455C58.8791 70.4243 57.5425 70.1697 56.2058 69.6818C54.8692 69.1938 53.6492 68.3716 52.546 67.2153C51.4427 66.0484 50.5569 64.4731 49.8886 62.4893C49.2203 60.495 48.8861 57.9914 48.8861 54.9787C48.8861 52.0932 49.1566 49.5366 49.6977 47.3089C50.2387 45.0705 51.0237 43.1875 52.0527 41.6599C53.0817 40.1217 54.3229 38.9548 55.7762 38.1592C57.2402 37.3636 58.8897 36.9658 60.725 36.9658C62.5496 36.9658 64.1727 37.3318 65.5942 38.0637C67.0263 38.7851 68.1932 39.7929 69.0949 41.0871C69.9966 42.3813 70.5801 43.8718 70.8453 45.5585H66.9627C66.602 44.0945 65.9018 42.8799 64.8622 41.9145C63.8226 40.9492 62.4435 40.4665 60.725 40.4665C58.2002 40.4665 56.2111 41.5645 54.7578 43.7604C53.3151 45.9563 52.5884 49.038 52.5778 53.0055H52.8324C53.4265 52.1038 54.1319 51.3347 54.9488 50.6982C55.7762 50.0511 56.6885 49.5525 57.6857 49.2024C58.6829 48.8524 59.7384 48.6773 60.8523 48.6773C62.7193 48.6773 64.4273 49.1441 65.9761 50.0776C67.5249 51.0005 68.7661 52.2788 69.6996 53.9125C70.6331 55.5356 71.0999 57.3973 71.0999 59.4978C71.0999 61.5134 70.649 63.3592 69.7473 65.0353C68.8456 66.7008 67.5779 68.0269 65.9443 69.0134C64.3212 69.9894 62.4117 70.4668 60.2158 70.4455ZM60.2158 66.9448C61.5524 66.9448 62.7512 66.6107 63.812 65.9423C64.8834 65.274 65.7268 64.3776 66.3421 63.2531C66.968 62.1286 67.2809 60.8769 67.2809 59.4978C67.2809 58.1505 66.9786 56.9253 66.3739 55.822C65.7798 54.7081 64.9577 53.8224 63.9075 53.1646C62.8679 52.5069 61.6797 52.1781 60.3431 52.1781C59.3353 52.1781 58.3965 52.3796 57.5266 52.7827C56.6567 53.1752 55.8929 53.7163 55.2352 54.4058C54.5881 55.0953 54.0789 55.8857 53.7076 56.7768C53.3363 57.6573 53.1507 58.5855 53.1507 59.5614C53.1507 60.8557 53.453 62.065 54.0577 63.1895C54.6729 64.314 55.511 65.221 56.5718 65.9105C57.6433 66.6 58.8579 66.9448 60.2158 66.9448Z" fill="#EBEBEB"/>
<path d="M2.10766 27.9139L46.2406 2.43371L90.3735 27.9139V78.8742L46.2406 104.354L2.10766 78.8742V27.9139Z" stroke="#E7AA0D" stroke-width="4.21532"/>
</svg>
